<svg width="38" height="39" viewBox="0 0 38 39" fill="none" xmlns="http://www.w3.org/2000/svg">
<path d="M15.5 25.5V12.5L26 19L15.5 25.5Z" fill="white"/>
<path d="M28 8C19.9871 3.25072 14.2812 4.21878 9.5 9C6 12.5 5 17 5.5 22C5.69901 23.9901 8 27.5 8 27.5L5 29.5C5 29.5 0.500001 25 1 17C1.5 9 7.60977 2.83876 15.5 1C23.3902 -0.838761 28 3.5 28 3.5L36 0L28 8Z" fill="white"/>
<path d="M33.5 7.5L30 10.5C32.6112 14.6664 33.1423 17.3667 32 23C30.7183 27.8546 28.5093 29.6821 23 32C16.9075 32.6251 14.0014 31.8836 10.5 29.5L3 39L10.5 34.5C15.2248 37.2247 18.1778 37.6671 24 36.5C32.9034 32.4143 34.9582 29.2131 37 23C37.8275 15.7615 36.7012 12.5622 33.5 7.5Z" fill="white"/>
</svg>
